# xmcd
#
# Track frame offsets: 
#        150
#        13740
#        27539
#        40753
#        56325
#        72423
#        94086
#        108951
#        121625
#        131614
#        144284
#        159623
#        176564
#        194515
#        212460
#        228272
#        246613
#        263519
#        276185
#        292237
#
# Disc length: 4054 seconds
#
# Revision: 0
# Processed by: cddbd v1.5.2PL0 Copyright (c) Steve Scherf et al.
# Submitted via: ExactAudioCopy v1.1
#
DISCID=230fd414
DTITLE=Various Artist - Studio Brussel - Dance With The Devils #Redtogether -
DTITLE=CD 1
DYEAR=2018
DGENRE=Pop
TTITLE0=Queen - We Are The Champions
TTITLE1=DJ Yolotanker - Dance With The Devils
TTITLE2=Stromae - Ta Fête
TTITLE3=Zombie Nation - Kernkraft 400
TTITLE4=The Fratellis - Chelsea Dagger
TTITLE5=Oasis - Don't Look Back In Anger
TTITLE6=Avicii - Levels
TTITLE7=Bellini - Samba De Janeiro
TTITLE8=Ramones - Blitzkrieg Bop
TTITLE9=ZwartWerk - Dance With The Devils
TTITLE10=Jebroer and DJ Paul Elstak - Kind Van De Duivel
TTITLE11=TheColorGrey - On and On
TTITLE12=Survivor - Eye Of The Tiger
TTITLE13=Dario G - Carnaval De Paris
TTITLE14=Gala - Freed From Desire
TTITLE15=Ixxel - Drop That Beat
TTITLE16=Push - Universal Nation
TTITLE17=Martin Solveig Feat. Alma - All Stars
TTITLE18=DJ Snake and Lil Jon - Turn Down For What
TTITLE19=Gerry and The Pacemakers - You'll Never Walk Alone
EXTD=
EXTT0=
EXTT1=
EXTT2=
EXTT3=
EXTT4=
EXTT5=
EXTT6=
EXTT7=
EXTT8=
EXTT9=
EXTT10=
EXTT11=
EXTT12=
EXTT13=
EXTT14=
EXTT15=
EXTT16=
EXTT17=
EXTT18=
EXTT19=
PLAYORDER=
